<mxfile host="app.diagrams.net" modified="2022-11-25T06:37:34.603Z" agent="5.0 (Windows NT 10.0; Win64; x64) AppleWebKit/537.36 (KHTML, like Gecko) Chrome/107.0.0.0 Safari/537.36" version="20.6.0" etag="r8lZBOUH1YGphNjvM6hR" type="github">
  <diagram id="6H0gKzJOW7PpUQBoL8Si" name="第 1 页">
    <mxGraphModel dx="870" dy="594" grid="1" gridSize="10" guides="1" tooltips="1" connect="1" arrows="1" fold="1" page="1" pageScale="1" pageWidth="827" pageHeight="1169" math="0" shadow="0">
      <root>
        <mxCell id="0" />
        <mxCell id="1" parent="0" />
        <mxCell id="TWnPoQYeJgKwArJD7QRD-1" value="POSIX 兼容层" style="rounded=0;whiteSpace=wrap;html=1;fillColor=#CCCCCC;" vertex="1" parent="1">
          <mxGeometry x="160" y="160" width="120" height="30" as="geometry" />
        </mxCell>
        <mxCell id="TWnPoQYeJgKwArJD7QRD-2" value="用户程序" style="rounded=0;whiteSpace=wrap;html=1;" vertex="1" parent="1">
          <mxGeometry x="160" y="190" width="120" height="70" as="geometry" />
        </mxCell>
        <mxCell id="TWnPoQYeJgKwArJD7QRD-3" value="驱动功能" style="rounded=0;whiteSpace=wrap;html=1;fillColor=#FFFFFF;" vertex="1" parent="1">
          <mxGeometry x="640" y="160" width="120" height="30" as="geometry" />
        </mxCell>
        <mxCell id="TWnPoQYeJgKwArJD7QRD-4" value="用户态驱动程序" style="rounded=0;whiteSpace=wrap;html=1;fillColor=#CCCCCC;" vertex="1" parent="1">
          <mxGeometry x="640" y="190" width="120" height="70" as="geometry" />
        </mxCell>
        <mxCell id="TWnPoQYeJgKwArJD7QRD-5" value="文件系统功能" style="rounded=0;whiteSpace=wrap;html=1;fillColor=#FFFFFF;" vertex="1" parent="1">
          <mxGeometry x="400" y="160" width="120" height="30" as="geometry" />
        </mxCell>
        <mxCell id="TWnPoQYeJgKwArJD7QRD-6" value="文件系统服务" style="rounded=0;whiteSpace=wrap;html=1;fillColor=#CCCCCC;" vertex="1" parent="1">
          <mxGeometry x="400" y="190" width="120" height="70" as="geometry" />
        </mxCell>
        <mxCell id="TWnPoQYeJgKwArJD7QRD-8" value="" style="shape=flexArrow;endArrow=classic;startArrow=classic;html=1;rounded=0;endSize=4;startSize=4;targetPerimeterSpacing=0;" edge="1" parent="1">
          <mxGeometry width="100" height="100" relative="1" as="geometry">
            <mxPoint x="525" y="210" as="sourcePoint" />
            <mxPoint x="635" y="210" as="targetPoint" />
          </mxGeometry>
        </mxCell>
        <mxCell id="TWnPoQYeJgKwArJD7QRD-10" value="" style="shape=flexArrow;endArrow=classic;startArrow=classic;html=1;rounded=0;endSize=4;startSize=4;targetPerimeterSpacing=0;" edge="1" parent="1">
          <mxGeometry width="100" height="100" relative="1" as="geometry">
            <mxPoint x="285" y="210" as="sourcePoint" />
            <mxPoint x="395" y="210" as="targetPoint" />
          </mxGeometry>
        </mxCell>
      </root>
    </mxGraphModel>
  </diagram>
</mxfile>
